<svg xmlns="http://www.w3.org/2000/svg" viewBox="0 0 24 24">

  <symbol id="shape-10" fill-rule="evenodd" clip-rule="evenodd">
    <path d="M19 0h-14c-2.76 0-5 2.239-5 5v14c0 2.76 2.239 5 5 5h14c2.759 0 5-2.239 5-5v-14c0-2.76-2.239-5-5-5m0 2c1.66 0 3 1.345 3 3v14c0 1.654-1.338 3-3 3h-14c-1.654 0-3-1.339-3-3v-14c0-1.658 1.342-3 3-3h14z" />
  </symbol>

  <symbol id="checkbox-9">
    <path d="M10.041 17l-4.5-4.319 1.395-1.435 3.08 2.937 7.021-7.183 1.422 1.409-8.418 8.591zm-5.041-15c-1.654 0-3 1.346-3 3v14c0 1.654 1.346 3 3 3h14c1.654 0 3-1.346 3-3v-14c0-1.654-1.346-3-3-3h-14zm19 3v14c0 2.761-2.238 5-5 5h-14c-2.762 0-5-2.239-5-5v-14c0-2.761 2.238-5 5-5h14c2.762 0 5 2.239 5 5z" />
  </symbol>

  <symbol id="circle-2">
    <path d="M12 2c5.514 0 10 4.486 10 10s-4.486 10-10 10-10-4.486-10-10 4.486-10 10-10zm0-2c-6.627 0-12 5.373-12 12s5.373 12 12 12 12-5.373 12-12-5.373-12-12-12z" />
  </symbol>

  <symbol id="checkbox-28">
    <path d="M12 2c5.514 0 10 4.486 10 10s-4.486 10-10 10-10-4.486-10-10 4.486-10 10-10zm0-2c-6.627 0-12 5.373-12 12s5.373 12 12 12 12-5.373 12-12-5.373-12-12-12zm0 6c-3.313 0-6 2.687-6 6s2.687 6 6 6c3.314 0 6-2.687 6-6s-2.686-6-6-6z" />
  </symbol>

  <!-- Not necessary (only onw below) -->
  <symbol id="heart-filled">
    <path d="m12 5.72c-2.624-4.517-10-3.198-10 2.461 0 3.725 4.345 7.727 9.303 12.54.194.189.446.283.697.283s.503-.094.697-.283c4.977-4.831 9.303-8.814 9.303-12.54 0-5.678-7.396-6.944-10-2.461z" />
  </symbol>

  <symbol id="arrow-65">
    <path d="M0 7.33l2.829-2.83 9.175 9.339 9.167-9.339 2.829 2.83-11.996 12.17z" />
  </symbol>

  <symbol id="x-mark-circle-lined"
    clip-rule="evenodd"
    fill-rule="evenodd"
    stroke-linejoin="round"
    stroke-miterlimit="2">
    <path d="m12.002 2.005c5.518 0 9.998 4.48 9.998 9.997 0 5.518-4.48 9.998-9.998 9.998-5.517 0-9.997-4.48-9.997-9.998 0-5.517 4.48-9.997 9.997-9.997zm0 1.5c-4.69 0-8.497 3.807-8.497 8.497s3.807 8.498 8.497 8.498 8.498-3.808 8.498-8.498-3.808-8.497-8.498-8.497zm0 7.425 2.717-2.718c.146-.146.339-.219.531-.219.404 0 .75.325.75.75 0 .193-.073.384-.219.531l-2.717 2.717 2.727 2.728c.147.147.22.339.22.531 0 .427-.349.75-.75.75-.192 0-.384-.073-.53-.219l-2.729-2.728-2.728 2.728c-.146.146-.338.219-.53.219-.401 0-.751-.323-.751-.75 0-.192.073-.384.22-.531l2.728-2.728-2.722-2.722c-.146-.147-.219-.338-.219-.531 0-.425.346-.749.75-.749.192 0 .385.073.531.219z" />
  </symbol>

  <symbol id="check-mark-circle-lined">
    <path d="m11.998 2.005c5.517 0 9.997 4.48 9.997 9.997 0 5.518-4.48 9.998-9.997 9.998-5.518 0-9.998-4.48-9.998-9.998 0-5.517 4.48-9.997 9.998-9.997zm0 1.5c-4.69 0-8.498 3.807-8.498 8.497s3.808 8.498 8.498 8.498 8.497-3.808 8.497-8.498-3.807-8.497-8.497-8.497zm-5.049 8.886 3.851 3.43c.142.128.321.19.499.19.202 0 .405-.081.552-.242l5.953-6.509c.131-.143.196-.323.196-.502 0-.41-.331-.747-.748-.747-.204 0-.405.082-.554.243l-5.453 5.962-3.298-2.938c-.144-.127-.321-.19-.499-.19-.415 0-.748.335-.748.746 0 .205.084.409.249.557z" />
  </symbol>

  <symbol id="error-lined" clip-rule="evenodd" fill-rule="evenodd" stroke-linejoin="round" stroke-miterlimit="2">
    <path d="m12.002 21.534c5.518 0 9.998-4.48 9.998-9.998s-4.48-9.997-9.998-9.997c-5.517 0-9.997 4.479-9.997 9.997s4.48 9.998 9.997 9.998zm0-1.5c-4.69 0-8.497-3.808-8.497-8.498s3.807-8.497 8.497-8.497 8.498 3.807 8.498 8.497-3.808 8.498-8.498 8.498zm0-6.5c-.414 0-.75-.336-.75-.75v-5.5c0-.414.336-.75.75-.75s.75.336.75.75v5.5c0 .414-.336.75-.75.75zm-.002 3c.552 0 1-.448 1-1s-.448-1-1-1-1 .448-1 1 .448 1 1 1z" />
  </symbol>

  <symbol id="info-lined" clip-rule="evenodd" fill-rule="evenodd" stroke-linejoin="round" stroke-miterlimit="2">
    <path d="m12.002 2.005c5.518 0 9.998 4.48 9.998 9.997 0 5.518-4.48 9.998-9.998 9.998-5.517 0-9.997-4.48-9.997-9.998 0-5.517 4.48-9.997 9.997-9.997zm0 1.5c-4.69 0-8.497 3.807-8.497 8.497s3.807 8.498 8.497 8.498 8.498-3.808 8.498-8.498-3.808-8.497-8.498-8.497zm0 6.5c-.414 0-.75.336-.75.75v5.5c0 .414.336.75.75.75s.75-.336.75-.75v-5.5c0-.414-.336-.75-.75-.75zm-.002-3c.552 0 1 .448 1 1s-.448 1-1 1-1-.448-1-1 .448-1 1-1z" fill-rule="nonzero"/>
  </symbol>

</svg>
